<svg id="folder" xmlns="http://www.w3.org/2000/svg" width="512" height="512" viewBox="0 0 512 512">
  <path id="Path_138005" data-name="Path 138005" d="M256,241A105,105,0,1,0,361,346,105.119,105.119,0,0,0,256,241Zm0,180a75,75,0,1,1,75-75A75.085,75.085,0,0,1,256,421Z"/>
  <path id="Path_138006" data-name="Path 138006" d="M275.394,320.393,241,354.787l-4.394-4.394a15,15,0,0,0-21.213,21.213l15,15a15,15,0,0,0,21.213,0l45-45a15,15,0,0,0-21.212-21.214Z"/>
  <path id="Path_138007" data-name="Path 138007" d="M467,60H209.493A75.132,75.132,0,0,0,136,0H45A45.051,45.051,0,0,0,0,45V467a45.051,45.051,0,0,0,45,45H467a45.051,45.051,0,0,0,45-45V105A45.051,45.051,0,0,0,467,60ZM45,30h91a45.051,45.051,0,0,1,45,45,15,15,0,0,0,15,15H467a15.017,15.017,0,0,1,15,15v75H452V135a15,15,0,0,0-15-15H75a15,15,0,0,0-15,15v45H30V45A15.017,15.017,0,0,1,45,30ZM90,180V150H422v30ZM482,467a15.017,15.017,0,0,1-15,15H45a15.017,15.017,0,0,1-15-15V210H482Z"/>
</svg>
