<svg xmlns="http://www.w3.org/2000/svg" width="512.013" height="512.002" viewBox="0 0 512.013 512.002">
  <g id="folder_1_" data-name="folder (1)" transform="translate(0 -0.005)">
    <g id="Group_26384" data-name="Group 26384">
      <path id="Path_138005" data-name="Path 138005" d="M508.437,296.851a10,10,0,0,0-9.729-7.686c-13.617,0-38.048-6.781-58.708-15.76v-43.4a30.034,30.034,0,0,0-30-30H390V20A20.023,20.023,0,0,0,370,0H70A20.023,20.023,0,0,0,50,20v120H20a20.023,20.023,0,0,0-20,20v290a30.034,30.034,0,0,0,30,30H354.815a229.557,229.557,0,0,0,42.23,30.681,10,10,0,0,0,9.916,0c69.2-39.506,93.157-95.484,101.064-135.487,8.547-43.242.748-76.94.412-78.354ZM70,20.005H370V200.01H196.771l-16.762-41.9c-4.4-10.993-14.557-18.1-25.883-18.1H70ZM20,450.011v-10H72a10,10,0,0,0,0-20H20v-260H154.126c3.526,0,6.214,2.774,7.314,5.524l19.277,48.19A10,10,0,0,0,190,220.01H410a10.011,10.011,0,0,1,10,10v33.151a62.911,62.911,0,0,1-10.967-8.266,10,10,0,0,0-14.063,0c-16.4,16.218-67.452,34.269-89.675,34.269a10,10,0,0,0-9.729,7.686c-.336,1.414-8.135,35.112.413,78.354a191.474,191.474,0,0,0,39.941,84.807H30A10.011,10.011,0,0,1,20,450.011Zm468.4-78.685c-9.983,50.5-39.038,90.54-86.4,119.088-47.1-28.392-76.1-68.164-86.243-118.294a191.559,191.559,0,0,1-1.985-63.479c25.8-2.9,66.551-17.472,88.229-33.571,21.682,16.1,62.445,30.674,88.246,33.573a190.528,190.528,0,0,1-1.845,62.683Z"/>
      <path id="Path_138006" data-name="Path 138006" d="M106.5,60.006h227a10,10,0,0,0,0-20h-227a10,10,0,1,0,0,20Z"/>
      <path id="Path_138007" data-name="Path 138007" d="M343.5,90.006a10,10,0,0,0-10-10h-227a10,10,0,1,0,0,20h227A10,10,0,0,0,343.5,90.006Z"/>
      <path id="Path_138008" data-name="Path 138008" d="M333.5,120.006H220a10,10,0,0,0,0,20H333.5a10,10,0,1,0,0-20Z"/>
      <path id="Path_138009" data-name="Path 138009" d="M333.5,160.006h-59a10,10,0,0,0,0,20h59a10,10,0,0,0,0-20Z"/>
      <path id="Path_138010" data-name="Path 138010" d="M439.358,327.6a29.8,29.8,0,0,0-21.212,8.787l-27.6,27.6-4.69-4.69a30,30,0,0,0-42.424,42.424l25.9,25.9a30.034,30.034,0,0,0,42.423,0l48.812-48.812A30,30,0,0,0,439.358,327.6Zm7.07,37.067-48.811,48.812a10.01,10.01,0,0,1-14.139,0l-25.9-25.9a10,10,0,0,1,14.138-14.138L383.475,385.2a10,10,0,0,0,14.142,0l34.671-34.671a10,10,0,0,1,14.14,14.138Z"/>
      <path id="Path_138011" data-name="Path 138011" d="M116.993,420.01a10,10,0,0,0,0,20H117a10,10,0,1,0-.007-20Z"/>
    </g>
  </g>
</svg>
